<svg width="20" height="20" viewBox="0 0 20 20" fill="none" xmlns="http://www.w3.org/2000/svg">
  <path d="M10 0C4.477 0 0 4.477 0 10s4.477 10 10 10 10-4.477 10-10S15.523 0 10 0zm0 18c-4.411 0-8-3.589-8-8s3.589-8 8-8 8 3.589 8 8-3.589 8-8 8z" fill="#171a21"/>
  <path d="M10 2C5.589 2 2 5.589 2 10s3.589 8 8 8 8-3.589 8-8-3.589-8-8-8zm0 14c-3.309 0-6-2.691-6-6s2.691-6 6-6 6 2.691 6 6-2.691 6-6 6z" fill="#1b2838"/>
  <path d="M10 4C6.686 4 4 6.686 4 10s2.686 6 6 6 6-2.686 6-6-2.686-6-6-6zm0 10c-2.206 0-4-1.794-4-4s1.794-4 4-4 4 1.794 4 4-1.794 4-4 4z" fill="#2a475e"/>
  <path d="M10 6C7.791 6 6 7.791 6 10s1.791 4 4 4 4-1.791 4-4-1.791-4-4-4zm0 6c-1.103 0-2-.897-2-2s.897-2 2-2 2 .897 2 2-.897 2-2 2z" fill="#66c0f4"/>
  <circle cx="10" cy="10" r="2" fill="#c7d5e0"/>
</svg>