<svg width="1024" height="1024" viewBox="0 0 1024 1024" xmlns="http://www.w3.org/2000/svg">
  <!-- Fondo del mapa -->
  <rect width="1024" height="1024" fill="#2d4a2d"/>
  
  <!-- Líneas principales del mapa -->
  <g stroke="#ffffff" stroke-width="2" fill="none">
    <!-- Líneas exteriores -->
    <rect x="50" y="50" width="924" height="924" rx="20"/>
    
    <!-- Líneas internas principales -->
    <line x1="512" y1="50" x2="512" y2="974"/>
    <line x1="50" y1="512" x2="974" y2="512"/>
    
    <!-- Líneas diagonales -->
    <line x1="200" y1="200" x2="824" y2="824"/>
    <line x1="824" y1="200" x2="200" y2="824"/>
  </g>
  
  <!-- Áreas principales -->
  <g fill="#4a6b4a" stroke="#ffffff" stroke-width="1">
    <!-- A Site -->
    <rect x="100" y="100" width="200" height="200" rx="10"/>
    <text x="200" y="220" text-anchor="middle" fill="#ffffff" font-size="24" font-weight="bold">A Site</text>
    
    <!-- B Site -->
    <rect x="724" y="724" width="200" height="200" rx="10"/>
    <text x="824" y="844" text-anchor="middle" fill="#ffffff" font-size="24" font-weight="bold">B Site</text>
    
    <!-- Mid -->
    <rect x="412" y="412" width="200" height="200" rx="10"/>
    <text x="512" y="532" text-anchor="middle" fill="#ffffff" font-size="24" font-weight="bold">Mid</text>
    
    <!-- CT Spawn -->
    <rect x="100" y="724" width="200" height="200" rx="10"/>
    <text x="200" y="844" text-anchor="middle" fill="#ffffff" font-size="20" font-weight="bold">CT Spawn</text>
    
    <!-- T Spawn -->
    <rect x="724" y="100" width="200" height="200" rx="10"/>
    <text x="824" y="220" text-anchor="middle" fill="#ffffff" font-size="20" font-weight="bold">T Spawn</text>
  </g>
  
  <!-- Título del mapa -->
  <text x="512" y="50" text-anchor="middle" fill="#ffffff" font-size="32" font-weight="bold">Mirage</text>
</svg>
